<svg width="129" height="55" viewBox="0 0 129 55" fill="none" xmlns="http://www.w3.org/2000/svg">
    <path fill-rule="evenodd" clip-rule="evenodd" d="M0 0H129V55H0V0Z" fill="#00549E"/>
    <path d="M15.291 42.8846H23.8932V34.3132H15.291V42.8846Z" fill="white"/>
    <path d="M41.924 43.5C48.6485 43.5 52.4911 40.5549 55.4167 36.5549L49.0415 31.9835C47.1639 34.2253 45.3299 35.7198 42.1423 35.7198C37.8631 35.7198 34.8502 32.1154 34.8502 27.5V27.4121C34.8502 22.9286 37.8631 19.2363 42.1423 19.2363C45.1116 19.2363 47.0766 20.6868 48.8232 22.8407L55.1984 17.8736C52.5348 14.1374 48.4302 11.5 42.2297 11.5C32.9725 11.5 26.1607 18.533 26.1607 27.5V27.5879C26.1607 36.7747 33.1909 43.5 41.924 43.5Z" fill="white"/>
    <path d="M59.1041 42.8846H67.5752V34.0934H71.8108C79.365 34.0934 84.9105 30.2692 84.9105 22.9725V22.8846C84.9105 16.0714 79.9326 12.1154 72.2474 12.1154H59.1041V42.8846ZM67.5752 27.4121V19.2802H71.5925C74.6054 19.2802 76.483 20.6429 76.483 23.2802V23.3681C76.483 25.8297 74.6054 27.4121 71.6361 27.4121H67.5752Z" fill="white"/>
    <path d="M88.4846 42.8846H96.9557V34.0934H101.191C108.745 34.0934 114.291 30.2692 114.291 22.9725V22.8846C114.291 16.0714 109.313 12.1154 101.628 12.1154H88.4846V42.8846ZM96.9557 27.4121V19.2802H100.973C103.986 19.2802 105.864 20.6429 105.864 23.2802V23.3681C105.864 25.8297 103.986 27.4121 101.017 27.4121H96.9557Z" fill="white"/>
</svg>
